<svg xmlns="http://www.w3.org/2000/svg" xmlns:xlink="http://www.w3.org/1999/xlink" width="17" height="16" viewBox="0 0 17 16"><defs><path id="lzora" d="M208.5 1490.88l-2.9 11.88a.16.16 0 0 1-.2.12l-5.83-1.76a.16.16 0 0 1-.08-.26l5.8-6.79-7.54 6.39a.16.16 0 0 1-.16.03l-4.96-1.56a.16.16 0 1 1-.02-.3l15.67-7.93a.16.16 0 1 1 .23.18zm-7.12 12.07c.02.05.01.1-.02.14l-1.6 2.52a.16.16 0 0 1-.19.07.16.16 0 0 1-.11-.15v-3.01c0-.05.02-.1.06-.13.04-.03.1-.04.15-.02l1.6.49c.05.01.1.05.11.1z"/></defs><g><g transform="translate(-192 -1490)"><use fill="#fff" xlink:href="#lzora"/></g></g></svg>