<svg xmlns="http://www.w3.org/2000/svg" xmlns:xlink="http://www.w3.org/1999/xlink" width="16" height="17" viewBox="0 0 16 17"><defs><path id="e02fa" d="M653 936.24c0 .64-.6.79-2.7.93-1.42.1-3.3.16-5.3.16s-3.88-.06-5.3-.16c-2.1-.14-2.7-.29-2.7-.93 0-.65.6-.8 2.7-.94.6-.04 1.29-.07 2.03-.1a7.74 7.74 0 0 1-2.46-5.85c0-.3.25-.56.56-.56h10.34c.3 0 .56.25.56.56 0 .3-.02.6-.05.89a1.6 1.6 0 0 1 1.76.72 1.63 1.63 0 0 1-1.75 2.42 1.58 1.58 0 0 1-.75-.43c-.42.9-1 1.66-1.67 2.25.74.02 1.43.06 2.03.1 2.1.15 2.7.29 2.7.94zm-2.77-3.99l.04.04a.93.93 0 0 0 1.7-.26.95.95 0 0 0-.1-.72.93.93 0 0 0-1.29-.31h-.01c-.08.43-.2.85-.34 1.25zm-5.23 3.1c2.4 0 4.37-2.39 4.6-5.43h-9.2c.23 3.04 2.2 5.43 4.6 5.43zm-1.98-8.37c-.28-.58-.08-1.42.6-2.47l.15-.24.02-.03c.6-1 .54-1.43.49-1.57-.04-.1-.1-.12-.1-.12-.22-.07-.35-.32-.28-.56a.45.45 0 0 1 .55-.3c.05 0 .48.15.67.67.2.58.02 1.38-.57 2.37a3.2 3.2 0 0 0-.13 2.3.45.45 0 0 1-.42.6h-.04a1.2 1.2 0 0 1-.94-.65zm2.62.25c-.2-.41-.07-.95.39-1.66l.07-.12.03-.05c.35-.59.29-.8.28-.82l.05.01a.43.43 0 0 1 .24-.82.8.8 0 0 1 .5.51c.15.4.03.93-.36 1.58-.3.57-.07 1.28-.06 1.29a.43.43 0 0 1-.4.57h-.03a.88.88 0 0 1-.7-.49z"/></defs><g><g transform="translate(-637 -921)"><use fill="#fff" xlink:href="#e02fa"/></g></g></svg>