<svg xmlns="http://www.w3.org/2000/svg" xmlns:xlink="http://www.w3.org/1999/xlink" width="13" height="16" viewBox="0 0 13 16"><defs><path id="3mxsa" d="M210.07 1013.37c-.27.4-.73.65-1.23.65h-8.72c-.5 0-.95-.25-1.23-.65-.27-.4-.32-.92-.14-1.37l3.06-8.25v-2.44c-.58-.2-1-.74-1-1.38v-.4c0-.8.67-1.46 1.49-1.46h4.37c.82 0 1.48.65 1.48 1.46v.4c0 .64-.42 1.18-1 1.38v2.44l3.07 8.26c.18.44.13.95-.15 1.36zm-7.46-2.73a.5.5 0 0 0 .5-.5.5.5 0 0 0-.5-.5.5.5 0 1 0 0 1zm1.88.8c0 .47.39.86.87.86s.87-.39.87-.86a.87.87 0 0 0-.87-.87.87.87 0 0 0-.87.87zm.76-2.14c.34 0 .62-.27.62-.62a.63.63 0 1 0-1.26 0c0 .35.29.62.64.62zm-3.6-2.3h.04s4.67-.08 5.31-.74l.03-.03-.85-2.31v-3.5h.49a.5.5 0 0 0 .5-.5v-.39a.5.5 0 0 0-.5-.5h-4.37a.5.5 0 0 0-.5.5v.4c0 .27.22.5.5.5h.48v3.48zm1.81-1.89c0-.37.3-.67.68-.67.38 0 .68.3.68.67 0 .37-.3.68-.68.68a.68.68 0 0 1-.68-.68z"/></defs><g><g transform="translate(-198 -998)"><use fill="#fff" xlink:href="#3mxsa"/></g></g></svg>