<svg aria-hidden="true" style="position:absolute;width:0;height:0" xmlns="http://www.w3.org/2000/svg" overflow="hidden"><defs><symbol id="icon-alarm" viewBox="0 0 32 32"><path d="M30.74 10c-1.623-3.714-4.526-6.617-8.139-8.201L22.5 1.76a5.87 5.87 0 0 1 8.23 8.253l.01-.013zm-.24 6.5c0 3.85-1.51 7.34-3.96 9.94l2.03 2.03a1.485 1.485 0 0 1-2.1 2.1l-2.18-2.18c-2.308 1.637-5.182 2.618-8.285 2.618s-5.977-.98-8.33-2.648l.045.03-2.16 2.17a1.5 1.5 0 1 1-2.12-2.12l.001-.001 2.01-2.01a14.445 14.445 0 0 1-3.95-9.947c0-8.008 6.492-14.5 14.5-14.5s14.5 6.492 14.5 14.5v.018-.001zM16 5C9.649 5 4.5 10.149 4.5 16.5S9.649 28 16 28s11.5-5.149 11.5-11.5S22.351 5 16 5zm6 13h-6a1.5 1.5 0 0 1-1.5-1.5v-8a1.5 1.5 0 0 1 3 0V15H22a1.5 1.5 0 0 1 0 3zM1.29 10.2a6 6 0 0 1 8.433-8.41l-.013-.01c-3.797 1.661-6.764 4.631-8.38 8.327l-.04.103z"/></symbol><symbol id="icon-book" viewBox="0 0 32 32"><path d="M31.06 25.89l-14.47 5.99c-.174.076-.377.121-.59.121s-.416-.044-.6-.125l.01.004-14.47-6A1.504 1.504 0 0 1 0 24.501V1.497A1.5 1.5 0 0 1 2.08.113L2.07.109l.02.01L16 5.879 29.92.119a1.5 1.5 0 0 1 2.07 1.387v22.996c0 .623-.38 1.157-.92 1.384l-.01.004zM14.5 8.5L3 3.74V23.5l11.5 4.76zM29 3.74L17.5 8.5v19.76L29 23.5zm-9.12 6.9l5.5-2.5a1.5 1.5 0 0 1 1.249 2.726l-.009.004-5.5 2.5a1.5 1.5 0 0 1-1.249-2.726l.009-.004zm0 5.5l5.5-2.5a1.5 1.5 0 0 1 1.249 2.726l-.009.004-5.5 2.5a1.5 1.5 0 0 1-1.249-2.726l.009-.004zm0 5.5l5.5-2.5a1.5 1.5 0 0 1 1.249 2.726l-.009.004-5.5 2.5a1.5 1.5 0 0 1-1.249-2.726l.009-.004zM6 8c.22 0 .43.05.62.13l5.5 2.5a1.504 1.504 0 1 1-1.249 2.736l.009.004-5.5-2.5A1.5 1.5 0 0 1 5.991 8h.01zm0 5.5c.22 0 .43.05.62.13l5.5 2.5a1.5 1.5 0 1 1-1.249 2.726l.009.004-5.5-2.5A1.5 1.5 0 0 1 6 13.5h.001zM6 19c.22 0 .43.05.62.13l5.5 2.5a1.504 1.504 0 1 1-1.249 2.736l.009.004-5.5-2.5A1.5 1.5 0 0 1 5.991 19h.01z"/></symbol><symbol id="icon-computer" viewBox="0 0 32 32"><path d="M30 25h-9.5v2.5l2 2v.5h-13v-.5l2-2V25H2a1.5 1.5 0 0 1-1.5-1.5v-20C.5 2.67 1.17 2 2 2h28c.83 0 1.5.67 1.5 1.5v20c0 .83-.67 1.5-1.5 1.5zm-.5-21h-27v17h27zM13 11c.41 0 .79.17 1.06.44l.94.94 2.94-2.94a1.5 1.5 0 1 1 2.12 2.12l-.001.001-4 4c-.271.271-.646.439-1.06.439s-.789-.168-1.06-.439l-2-2a1.5 1.5 0 0 1 1.06-2.56z"/></symbol><symbol id="icon-facebook" viewBox="0 0 32 32"><path d="M23.495.246v5.071s-3.742-.369-4.677 1.058c-.505.788-.209 3.077-.246 4.726h4.948c-.418 1.92-.714 3.225-1.022 4.898h-3.963v15.754h-6.868V16.061H8.75v-4.96h2.88c.16-3.631.209-7.225 2.006-9.046C15.667 0 17.599.246 23.482.246z"/></symbol><symbol id="icon-home" viewBox="0 0 32 32"><path d="M32 17a1.5 1.5 0 0 1-2.521 1.099l.001.001L16 4.62 2.55 18.07a1.503 1.503 0 0 1-2.101-2.15l14.47-14.46c.273-.284.656-.46 1.08-.46h.162-.002c.37.05.7.22.94.48l5.9 5.9V6a1.5 1.5 0 0 1 3 0v4.38l5.6 5.6c.24.27.4.62.4 1.02zm-3 2.5V30c0 .83-.67 1.5-1.5 1.5h-3v-12h-6v12h-14A1.5 1.5 0 0 1 3 30V19.5l13-13zm-15.5 0h-6v6h6z"/></symbol><symbol id="icon-image" viewBox="0 0 32 32"><path d="M30.5 32h-29A1.5 1.5 0 0 1 0 30.5v-29C0 .67.67 0 1.5 0h29c.83 0 1.5.67 1.5 1.5v29c0 .83-.67 1.5-1.5 1.5zM29 3H3v26h26zM12 4.5a1.5 1.5 0 0 1 0 3H7.5V12a1.5 1.5 0 0 1-3 0V4.5zM4.5 20a1.5 1.5 0 0 1 3 0v4.5H12a1.5 1.5 0 0 1 0 3H4.5zM20 4.5h7.5V12a1.5 1.5 0 0 1-3 0V7.5H20a1.5 1.5 0 0 1 0-3zm0 20h4.5V20a1.5 1.5 0 0 1 3 0v7.5H20a1.5 1.5 0 0 1 0-3z"/></symbol><symbol id="icon-instagram" viewBox="0 0 32 32"><path d="M27.938 31.754H4.307a3.938 3.938 0 0 1-3.938-3.938V4.185A3.938 3.938 0 0 1 4.307.247h23.631a3.938 3.938 0 0 1 3.938 3.938v23.631a3.938 3.938 0 0 1-3.938 3.938zM16.123 9.895a6.097 6.097 0 0 0-5.538 3.545l-.025.062a2.3 2.3 0 0 0-.16.406l-.074.185a5.056 5.056 0 0 0-.114.376l-.01.043c0 .062-.025.123-.049.197l-.074.455-.025.185a6.105 6.105 0 1 0 12.133-.028l.003.028-.025-.185a5.824 5.824 0 0 0-.081-.495l.007.04-.049-.197a5.799 5.799 0 0 0-.136-.462l.013.043-.074-.185-.16-.406c0-.012 0-.037-.025-.062-.991-2.109-3.097-3.543-5.538-3.545zm12.209-4.529c0-.862-.702-1.575-1.575-1.575h-3.151c-.862 0-1.575.702-1.575 1.575v3.151c0 .862.702 1.575 1.575 1.575h3.151c.862 0 1.575-.702 1.575-1.575zm0 8.074h-2.905c.219.766.345 1.646.345 2.556 0 5.329-4.32 9.649-9.649 9.649s-9.649-4.32-9.649-9.649c0-.909.126-1.79.361-2.624l-.016.068H3.914v13.194c0 .862.702 1.575 1.575 1.575h21.268c.862 0 1.575-.702 1.575-1.575z"/></symbol><symbol id="icon-linegraph" viewBox="0 0 32 32"><path d="M30.5 32h-29A1.5 1.5 0 0 1 0 30.5v-29C0 .67.67 0 1.5 0h29c.83 0 1.5.67 1.5 1.5v29c0 .83-.67 1.5-1.5 1.5zM29 3H3v26h26zM5.22 16.24l4-2.5c.224-.14.495-.223.787-.223.311 0 .599.094.839.256l-.005-.003 6.64 4.42 7.63-5.4c.25-.18.56-.28.89-.28a1.5 1.5 0 0 1 .885 2.707l-8.504 6.003a1.489 1.489 0 0 1-.877.283c-.323 0-.623-.102-.868-.276l.005.003-6.66-4.43-3.13 1.95a1.501 1.501 0 0 1-1.636-2.516l.006-.004z"/></symbol><symbol id="icon-pinterest" viewBox="0 0 32 32"><path d="M13.6 20.738l-.788 3.151c-.258 1.046-.492 2.092-.874 3.04A15.606 15.606 0 0 1 9.394 31.3l.021-.026c-.702.812-.554.492-.763.443-.172-.037-.185-.197-.209-.418-.172-1.255-.062-2.708 0-4.111.074-1.6.418-2.954.738-4.283l1.76-7.582c.037-.172.148-.455.111-.542a7.664 7.664 0 0 1-.526-2.056l-.003-.036a6.676 6.676 0 0 1 .172-2.4c.332-1.305 1.12-2.462 2.338-2.88a2.669 2.669 0 0 1 2.143.179l-.014-.007c.529.308.898.812 1.058 1.526.185.763.049 1.662-.098 2.338-.32 1.489-.751 2.622-1.145 4.062-.197.726-.418 1.465-.246 2.228a2.597 2.597 0 0 0 1.058 1.575c.517.382 1.132.591 1.994.554 1.514-.049 2.56-1.009 3.262-1.92a11.297 11.297 0 0 0 2.065-5.735l.002-.038c.074-.751.135-1.625.086-2.474a6.729 6.729 0 0 0-1.402-3.856l.012.016a6.523 6.523 0 0 0-3.043-2.092l-.046-.013a10.037 10.037 0 0 0-2.919-.424c-.599 0-1.186.051-1.757.15l.061-.009a8.2 8.2 0 0 0-6.022 4.3l-.021.045a8.766 8.766 0 0 0-1.034 4.185c0 1.305.32 2.302.837 3.077.16.258.394.468.554.738.234.406-.025 1.009-.148 1.44-.123.529-.148 1.243-.751 1.255-.246 0-.578-.172-.788-.295-1.6-.886-2.585-2.498-2.978-4.603a11.05 11.05 0 0 1 .011-4.044l-.011.068a11.43 11.43 0 0 1 5.363-7.54l.053-.029A12.672 12.672 0 0 1 13.902.424l.067-.008c.615-.098 1.268-.123 1.969-.16a12.025 12.025 0 0 1 5.329.985 10.962 10.962 0 0 1 3.66 2.637l.008.009a9.962 9.962 0 0 1 2.247 4.003l.017.071c.246.862.492 1.76.492 2.818 0 1.046-.234 1.982-.382 2.917-.591 3.471-2.24 6.326-4.726 7.938a8.102 8.102 0 0 1-4.943 1.353l.02.001a5.657 5.657 0 0 1-2.465-.728l.028.015c-.665-.369-1.231-.837-1.625-1.538z"/></symbol><symbol id="icon-search" viewBox="0 0 32 32"><path d="M31.644 28.711v.012a2.933 2.933 0 0 1-5.013 2.068l-8.587-8.604a11.607 11.607 0 0 1-5.963 1.628c-6.48 0-11.733-5.253-11.733-11.733S5.601.349 12.081.349s11.733 5.253 11.733 11.733c0 2.199-.605 4.257-1.658 6.016l.03-.053 8.604 8.587c.533.533.853 1.262.853 2.08zM12.089 3.289a8.8 8.8 0 0 0 0 17.6 8.8 8.8 0 0 0 0-17.6z"/></symbol><symbol id="icon-shop" viewBox="0 0 32 32"><path d="M31.52 9.173l-4.409 9.778a1.462 1.462 0 0 1-1.24.871h-.004l-12.658.836.711 2.098h13.813a2.933 2.933 0 1 1-2.933 2.933H11.111a2.933 2.933 0 1 1-2.933-2.933h2.667L5.174 6.614h-3.36a1.476 1.476 0 1 1-.007-2.933l.007-.001h4.409c.64 0 1.173.427 1.387.996l.853 2.436h21.732a1.458 1.458 0 0 1 1.323 2.072l.004-.009zm-22.044.871l2.72 7.751 12.622-.853 3.093-6.898z"/></symbol><symbol id="icon-twitter" viewBox="0 0 32 32"><path d="M21.551 3.2a6.63 6.63 0 0 1 5.106 2.028l.002.002a10.442 10.442 0 0 0 3.378-1.135l-.055.027.8-.455a6.496 6.496 0 0 1-2.08 3.031l-.012.009c-.222.172-.443.394-.714.492v.025c1.403-.012 2.56-.64 3.655-.985a10.554 10.554 0 0 1-2.175 2.51l-.016.013-1.009.8c.012 1.489-.025 2.905-.295 4.16-1.625 7.262-5.908 12.185-12.677 14.277-2.425.763-6.351 1.083-9.132.394a23.444 23.444 0 0 1-3.969-1.302l.153.059a16.924 16.924 0 0 1-1.822-.948l-.566-.345c.628.012 1.354.185 2.068.074.628-.098 1.255-.074 1.846-.197 1.465-.32 2.757-.738 3.877-1.403.542-.32 1.354-.689 1.748-1.145a6.503 6.503 0 0 1-6.017-4.434l-.013-.046c.64.062 2.462.234 2.892-.123a4.736 4.736 0 0 1-2.118-.871l.013.009c-1.841-1.101-3.055-3.085-3.055-5.352 0-.066.001-.131.003-.196v.01c.583.311 1.26.55 1.975.682l.044.007c.222.062.64.185.886.086h-.037c-.32-.369-.862-.615-1.182-1.034A6.577 6.577 0 0 1 1.425 7.58c0-.537.064-1.059.185-1.56l-.009.045a8.013 8.013 0 0 1 .702-1.686l.025.012c.123.271.406.455.591.677.554.689 1.231 1.305 1.92 1.846a18.908 18.908 0 0 0 7.774 3.791l.127.024c.862.209 1.871.369 2.905.369-.295-.837-.197-2.215.025-3.028.611-2.456 2.587-4.324 5.057-4.77l.039-.006.788-.098z"/></symbol></defs></svg>