<svg xmlns="http://www.w3.org/2000/svg" xmlns:xlink="http://www.w3.org/1999/xlink" width="16" height="17" viewBox="0 0 16 17"><defs><path id="pt3ca" d="M211.95 773.48v9.32c0 .73-.6 1.33-1.33 1.33h-13.34c-.74 0-1.34-.6-1.34-1.33v-9.32c0-.73.6-1.33 1.34-1.33h5.68l-2.25-2.68-.1.02a.67.67 0 1 1 .67-.67c0 .08-.02.16-.05.23l2.6 3.1h.24l2.59-3.1a.66.66 0 0 1-.05-.23.67.67 0 0 1 1.34 0c0 .37-.3.67-.67.67l-.1-.02-2.24 2.68h5.68c.73 0 1.33.6 1.33 1.33zm-4 1.33c0-.73-.6-1.33-1.34-1.33h-8c-.74 0-1.33.6-1.33 1.33v6.66c0 .73.6 1.33 1.33 1.33h8c.74 0 1.34-.6 1.34-1.33zm2.92-.24a.95.95 0 1 0-1.9 0 .95.95 0 0 0 1.9 0z"/></defs><g><g transform="translate(-196 -768)"><use fill="#fff" xlink:href="#pt3ca"/></g></g></svg>